<?xml version="1.0" encoding="UTF-8" standalone="no"?>
<!-- Created with Inkscape (http://www.inkscape.org/) -->

<svg
   xmlns:dc="http://purl.org/dc/elements/1.1/"
   xmlns:cc="http://creativecommons.org/ns#"
   xmlns:rdf="http://www.w3.org/1999/02/22-rdf-syntax-ns#"
   xmlns:svg="http://www.w3.org/2000/svg"
   xmlns="http://www.w3.org/2000/svg"
   xmlns:sodipodi="http://sodipodi.sourceforge.net/DTD/sodipodi-0.dtd"
   xmlns:inkscape="http://www.inkscape.org/namespaces/inkscape"
   width="63.62175mm"
   height="66.553459mm"
   viewBox="0 0 63.62175 66.553459"
   version="1.1"
   id="svg4800"
   inkscape:version="0.92.3 (2405546, 2018-03-11)"
   sodipodi:docname="moon.svg">
  <defs
     id="defs4794" />
  <sodipodi:namedview
     id="base"
     pagecolor="#ffffff"
     bordercolor="#666666"
     borderopacity="1.0"
     inkscape:pageopacity="0.0"
     inkscape:pageshadow="2"
     inkscape:zoom="1.1457031"
     inkscape:cx="-37.506039"
     inkscape:cy="144.61791"
     inkscape:document-units="mm"
     inkscape:current-layer="layer1"
     showgrid="false"
     fit-margin-top="0"
     fit-margin-left="0"
     fit-margin-right="0"
     fit-margin-bottom="0"
     inkscape:window-width="1920"
     inkscape:window-height="1017"
     inkscape:window-x="-8"
     inkscape:window-y="-8"
     inkscape:window-maximized="1" />
  <metadata
     id="metadata4797">
    <rdf:RDF>
      <cc:Work
         rdf:about="">
        <dc:format>image/svg+xml</dc:format>
        <dc:type
           rdf:resource="http://purl.org/dc/dcmitype/StillImage" />
        <dc:title></dc:title>
      </cc:Work>
    </rdf:RDF>
  </metadata>
  <g
     inkscape:label="Layer 1"
     inkscape:groupmode="layer"
     id="layer1"
     transform="translate(-59.63952,-120.54337)">
    <g
       id="g4792"
       transform="translate(328.67898,56.440931)">
      <path
         inkscape:connector-curvature="0"
         id="path4775"
         d="m -238.58654,69.528872 a 30.453282,30.563611 0 0 0 -30.45292,30.563508 30.453282,30.563611 0 0 0 30.45292,30.56351 30.453282,30.563611 0 0 0 19.06343,-6.74016 30.453282,30.563611 0 0 1 -20.64938,-28.904176 30.453282,30.563611 0 0 1 11.38948,-23.823353 30.453282,30.563611 0 0 0 -9.80353,-1.659329 z"
         style="opacity:1;fill:#214478;fill-opacity:1;fill-rule:nonzero;stroke:none;stroke-width:0.16499999;stroke-linecap:square;stroke-linejoin:miter;stroke-miterlimit:4;stroke-dasharray:none;stroke-dashoffset:0;stroke-opacity:1;paint-order:markers fill stroke" />
      <path
         inkscape:transform-center-y="-9.2264635e-006"
         inkscape:transform-center-x="-4.4637059e-006"
         transform="matrix(1.3026493,1.2604205,-1.2604205,1.3026493,141.82486,242.28848)"
         d="m -206.57166,73.071247 c -0.51011,0 -3.55839,2.007408 -3.9191,1.646699 -0.36071,-0.360709 1.6467,-3.408983 1.6467,-3.919103 0,-0.510119 -2.00741,-3.558393 -1.6467,-3.919102 0.36071,-0.360709 3.40898,1.646699 3.9191,1.646699 0.51012,0 3.5584,-2.007408 3.91911,-1.646699 0.36071,0.360709 -1.6467,3.408983 -1.6467,3.919102 0,0.51012 2.00741,3.558394 1.6467,3.919103 -0.36071,0.360709 -3.40899,-1.646699 -3.91911,-1.646699 z"
         inkscape:randomized="0"
         inkscape:rounded="0.12"
         inkscape:flatsided="false"
         sodipodi:arg2="2.3561945"
         sodipodi:arg1="1.5707963"
         sodipodi:r2="5.542448"
         sodipodi:r1="2.2724037"
         sodipodi:cy="70.798843"
         sodipodi:cx="-206.57166"
         sodipodi:sides="4"
         id="path4780"
         style="opacity:0.73999999;fill:#214478;fill-opacity:1;fill-rule:nonzero;stroke:none;stroke-width:0.09102896;stroke-linecap:square;stroke-linejoin:miter;stroke-miterlimit:4;stroke-dasharray:none;stroke-dashoffset:0;stroke-opacity:1;paint-order:markers fill stroke"
         sodipodi:type="star" />
      <path
         sodipodi:type="star"
         style="opacity:0.581;fill:#204378;fill-opacity:0.74117647;fill-rule:nonzero;stroke:none;stroke-width:0.13894419;stroke-linecap:square;stroke-linejoin:miter;stroke-miterlimit:4;stroke-dasharray:none;stroke-dashoffset:0;stroke-opacity:1;paint-order:markers fill stroke"
         id="path4784"
         sodipodi:sides="4"
         sodipodi:cx="-206.57166"
         sodipodi:cy="70.798843"
         sodipodi:r1="2.2724037"
         sodipodi:r2="5.542448"
         sodipodi:arg1="1.5707963"
         sodipodi:arg2="2.3561945"
         inkscape:flatsided="false"
         inkscape:rounded="0.12"
         inkscape:randomized="0"
         d="m -206.57166,73.071247 c -0.51011,0 -3.55839,2.007408 -3.9191,1.646699 -0.36071,-0.360709 1.6467,-3.408983 1.6467,-3.919103 0,-0.510119 -2.00741,-3.558393 -1.6467,-3.919102 0.36071,-0.360709 3.40898,1.646699 3.9191,1.646699 0.51012,0 3.5584,-2.007408 3.91911,-1.646699 0.36071,0.360709 -1.6467,3.408983 -1.6467,3.919102 0,0.51012 2.00741,3.558394 1.6467,3.919103 -0.36071,0.360709 -3.40899,-1.646699 -3.91911,-1.646699 z"
         transform="matrix(0.85342759,0.8257615,-0.8257615,0.85342759,9.8258923,203.58773)"
         inkscape:transform-center-x="-3.4495243e-006"
         inkscape:transform-center-y="-7.6078543e-006" />
      <path
         inkscape:transform-center-y="-1.5854512e-005"
         inkscape:transform-center-x="-2.5561252e-006"
         transform="matrix(1.2128047,1.1734885,-1.1734885,1.2128047,118.84284,265.56292)"
         d="m -206.57166,73.071247 c -0.51011,0 -3.55839,2.007408 -3.9191,1.646699 -0.36071,-0.360709 1.6467,-3.408983 1.6467,-3.919103 0,-0.510119 -2.00741,-3.558393 -1.6467,-3.919102 0.36071,-0.360709 3.40898,1.646699 3.9191,1.646699 0.51012,0 3.5584,-2.007408 3.91911,-1.646699 0.36071,0.360709 -1.6467,3.408983 -1.6467,3.919102 0,0.51012 2.00741,3.558394 1.6467,3.919103 -0.36071,0.360709 -3.40899,-1.646699 -3.91911,-1.646699 z"
         inkscape:randomized="0"
         inkscape:rounded="0.12"
         inkscape:flatsided="false"
         sodipodi:arg2="2.3561945"
         sodipodi:arg1="1.5707963"
         sodipodi:r2="5.542448"
         sodipodi:r1="2.2724037"
         sodipodi:cy="70.798843"
         sodipodi:cx="-206.57166"
         sodipodi:sides="4"
         id="path4786"
         style="opacity:0.80699978;fill:#214478;fill-opacity:1;fill-rule:nonzero;stroke:none;stroke-width:0.09777238;stroke-linecap:square;stroke-linejoin:miter;stroke-miterlimit:4;stroke-dasharray:none;stroke-dashoffset:0;stroke-opacity:1;paint-order:markers fill stroke"
         sodipodi:type="star" />
    </g>
  </g>
</svg>
