<svg id="Layer_1" viewBox="0 0 24 24" xmlns="http://www.w3.org/2000/svg" data-name="Layer 1"><path d="m22.856 2.387c-.316-.452-.939-.563-1.393-.244-.144.101-3.541 2.489-5.554 4.354-2.551 2.362-4.587 4.755-4.673 4.855-.357.421-.306 1.052.115 1.409.419.356 1.051.308 1.41-.115.02-.023 2.047-2.404 4.507-4.683 1.913-1.772 5.309-4.161 5.343-4.185.452-.317.562-.941.244-1.393zm-2.438 7.799c-.078.056-1.929 1.383-3.417 2.911-1.475 1.513-2.752 3.236-2.806 3.308-.329.444-.235 1.07.209 1.398.44.327 1.068.238 1.398-.209.013-.017 1.254-1.689 2.63-3.102 1.361-1.397 3.13-2.667 3.147-2.679.449-.321.554-.946.232-1.395s-.947-.553-1.395-.232zm-12.42-.186c.308 0 .611-.142.808-.409.013-.017 1.24-1.687 2.618-3.102 1.36-1.396 3.136-2.661 3.153-2.673.45-.32.557-.944.237-1.395-.318-.45-.942-.557-1.394-.237-.079.056-1.939 1.38-3.429 2.909-1.476 1.514-2.746 3.243-2.8 3.316-.326.445-.229 1.071.216 1.397.178.13.385.193.59.193zm2.874 6.864c-.114-.378-.439-.654-.831-.704-.843-.107-1.593-.187-2.3-.24-.304-.733-.649-1.491-1.029-2.251-.169-.339-.515-.553-.893-.554h-.002c-.378 0-.724.213-.894.551-.376.749-.724 1.506-1.033 2.254-.729.054-1.505.138-2.377.25-.396.051-.723.332-.833.716-.11.383.019.796.326 1.049 0 0 1.159.952 1.688 1.4-.245.852-.451 1.711-.612 2.557-.072.379.081.767.393.995.313.229.729.255 1.068.071.765-.417 1.538-.828 2.273-1.276.758.461 1.537.875 2.382 1.267.35.163.765.108 1.062-.141s.424-.647.324-1.022c-.209-.796-.417-1.653-.646-2.45.536-.457 1.07-.93 1.621-1.42l.006-.005c.3-.258.419-.667.306-1.046zm-3.721 1.365c-.3.254-.422.661-.313 1.039 0 0 .221.766.24.838-.074-.044-.741-.45-.741-.45-.16-.097-.34-.146-.521-.146-.18 0-.36.048-.52.146 0 0-.668.406-.742.45.02-.073.24-.838.24-.838.108-.378-.014-.785-.313-1.039l-.377-.32.548-.041c.378-.028.706-.266.851-.615 0 0 .287-.692.313-.754.025.062.312.754.312.754.145.35.473.587.851.615l.548.041-.376.319z" fill="#1D4E89"/></svg>