<?xml version="1.0" encoding="UTF-8" standalone="no"?>
<!-- Created with Inkscape (http://www.inkscape.org/) -->

<svg
   xmlns:dc="http://purl.org/dc/elements/1.1/"
   xmlns:cc="http://creativecommons.org/ns#"
   xmlns:rdf="http://www.w3.org/1999/02/22-rdf-syntax-ns#"
   xmlns:svg="http://www.w3.org/2000/svg"
   xmlns="http://www.w3.org/2000/svg"
   xmlns:sodipodi="http://sodipodi.sourceforge.net/DTD/sodipodi-0.dtd"
   xmlns:inkscape="http://www.inkscape.org/namespaces/inkscape"
   width="168.42517mm"
   height="171.7877mm"
   viewBox="0 0 168.42517 171.7877"
   version="1.1"
   id="svg8"
   inkscape:export-filename="C:\Users\lordf\Sarah\BYUI\WDD 230\wdd 230\week01\images\siteplan.png"
   inkscape:export-xdpi="90"
   inkscape:export-ydpi="90"
   inkscape:version="0.92.3 (2405546, 2018-03-11)"
   sodipodi:docname="favicon.svg">
  <defs
     id="defs2">
    <clipPath
       clipPathUnits="userSpaceOnUse"
       id="clipPath4541">
      <rect
         style="opacity:0.503;fill:#ff0000;fill-opacity:1;fill-rule:nonzero;stroke:#000000;stroke-width:0.16499999;stroke-linecap:square;stroke-linejoin:miter;stroke-miterlimit:4;stroke-dasharray:none;stroke-dashoffset:0;stroke-opacity:1;paint-order:markers fill stroke"
         id="rect4543"
         width="203.035"
         height="253.83499"
         x="18.587469"
         y="-29.241508" />
    </clipPath>
    <clipPath
       clipPathUnits="userSpaceOnUse"
       id="clipPath4556">
      <rect
         y="-39.337017"
         x="72.210312"
         height="253.83499"
         width="203.035"
         id="rect4558"
         style="opacity:0.503;fill:#ff0000;fill-opacity:1;fill-rule:nonzero;stroke:#000000;stroke-width:0.16499999;stroke-linecap:square;stroke-linejoin:miter;stroke-miterlimit:4;stroke-dasharray:none;stroke-dashoffset:0;stroke-opacity:1;paint-order:markers fill stroke" />
    </clipPath>
    <clipPath
       clipPathUnits="userSpaceOnUse"
       id="clipPath4579">
      <rect
         style="opacity:0.503;fill:#ff0000;fill-opacity:1;fill-rule:nonzero;stroke:none;stroke-width:0.16499999;stroke-linecap:square;stroke-linejoin:miter;stroke-miterlimit:4;stroke-dasharray:none;stroke-dashoffset:0;stroke-opacity:1;paint-order:markers fill stroke"
         id="rect4581"
         width="711.20001"
         height="889"
         x="-207.1449"
         y="-460.02774" />
    </clipPath>
    <clipPath
       clipPathUnits="userSpaceOnUse"
       id="clipPath4612">
      <rect
         style="opacity:0.503;fill:#ff0000;fill-opacity:1;fill-rule:nonzero;stroke:none;stroke-width:0.16499999;stroke-linecap:square;stroke-linejoin:miter;stroke-miterlimit:4;stroke-dasharray:none;stroke-dashoffset:0;stroke-opacity:1;paint-order:markers fill stroke"
         id="rect4614"
         width="711.20001"
         height="889"
         x="-225.43404"
         y="-551.47351" />
    </clipPath>
    <clipPath
       clipPathUnits="userSpaceOnUse"
       id="clipPath4616">
      <rect
         y="-540.49072"
         x="-518.82996"
         height="889"
         width="711.20001"
         id="rect4618"
         style="opacity:0.503;fill:#ff0000;fill-opacity:1;fill-rule:nonzero;stroke:none;stroke-width:0.16499999;stroke-linecap:square;stroke-linejoin:miter;stroke-miterlimit:4;stroke-dasharray:none;stroke-dashoffset:0;stroke-opacity:1;paint-order:markers fill stroke" />
    </clipPath>
    <clipPath
       clipPathUnits="userSpaceOnUse"
       id="clipPath4633">
      <rect
         style="opacity:0.503;fill:#ff0000;fill-opacity:1;fill-rule:nonzero;stroke:none;stroke-width:0.16499999;stroke-linecap:square;stroke-linejoin:miter;stroke-miterlimit:4;stroke-dasharray:none;stroke-dashoffset:0;stroke-opacity:1;paint-order:markers fill stroke"
         id="rect4635"
         width="711.20001"
         height="889"
         x="-419.37857"
         y="-571.67767" />
    </clipPath>
    <clipPath
       clipPathUnits="userSpaceOnUse"
       id="clipPath4650">
      <rect
         style="opacity:0.503;fill:#ff0000;fill-opacity:1;fill-rule:nonzero;stroke:none;stroke-width:0.16499999;stroke-linecap:square;stroke-linejoin:miter;stroke-miterlimit:4;stroke-dasharray:none;stroke-dashoffset:0;stroke-opacity:1;paint-order:markers fill stroke"
         id="rect4652"
         width="711.20001"
         height="889"
         x="450.69678"
         y="-797.09973" />
    </clipPath>
  </defs>
  <sodipodi:namedview
     id="base"
     pagecolor="#ffffff"
     bordercolor="#666666"
     borderopacity="1.0"
     inkscape:pageopacity="0.0"
     inkscape:pageshadow="2"
     inkscape:zoom="0.40506722"
     inkscape:cx="-808.25659"
     inkscape:cy="457.99832"
     inkscape:document-units="mm"
     inkscape:current-layer="layer1"
     showgrid="false"
     fit-margin-top="0"
     fit-margin-left="0"
     fit-margin-right="0"
     fit-margin-bottom="0"
     inkscape:window-width="1920"
     inkscape:window-height="1017"
     inkscape:window-x="-8"
     inkscape:window-y="-8"
     inkscape:window-maximized="1" />
  <metadata
     id="metadata5">
    <rdf:RDF>
      <cc:Work
         rdf:about="">
        <dc:format>image/svg+xml</dc:format>
        <dc:type
           rdf:resource="http://purl.org/dc/dcmitype/StillImage" />
        <dc:title></dc:title>
      </cc:Work>
    </rdf:RDF>
  </metadata>
  <g
     inkscape:label="Layer 1"
     inkscape:groupmode="layer"
     id="layer1"
     transform="translate(-20.787414,-62.606151)">
    <g
       id="g4762"
       inkscape:export-xdpi="90"
       inkscape:export-ydpi="90"
       transform="translate(46.204067,1.5194658)">
      <path
         sodipodi:nodetypes="cssssscsssc"
         inkscape:connector-curvature="0"
         id="path4753"
         d="m 142.94897,124.02943 c 1.34907,1.34907 -20.61874,2.80714 -25.86476,-7.15899 C 108.06733,99.740604 83.11219,71.07777 47.803614,73.223661 4.7361849,75.841099 -24.065048,110.66921 -24.24821,146.19923 c -0.207514,40.25381 31.6424323,74.87164 78.312692,74.0766 25.242014,-0.43 53.053498,-22.04057 61.890668,-42.03023 5.36323,-12.1316 27.43429,-9.55214 26.07008,-7.79816 3.78453,15.92397 -30.82745,64.58593 -84.291398,62.35253 -55.0663523,-2.30034 -82.304557,-44.97894 -83.136718,-86.36981 -0.754835,-37.54475 29.5983492,-79.731125 74.361176,-84.753267 37.36299,-4.191922 81.5819,13.672636 93.99068,62.352537 z"
         style="fill:#2f97c1;fill-opacity:1;stroke:none;stroke-width:0.26458332px;stroke-linecap:butt;stroke-linejoin:miter;stroke-opacity:1" />
      <path
         style="fill:#2f97c1;fill-opacity:0.59183673;stroke:none;stroke-width:0.26458332px;stroke-linecap:butt;stroke-linejoin:miter;stroke-opacity:1"
         d="M 101.62853,123.44794 C 102.59282,124.41223 82.022661,126.08 76.674751,120.06286 66.654435,108.78864 53.113456,92.944283 27.847247,94.522972 c -32.2211299,2.013247 -51.330289,29.546968 -50.537764,52.560448 1.078286,31.31145 28.5583516,57.74831 60.53733,51.35022 18.467724,-3.69487 29.847329,-10.76828 36.399945,-22.8573 4.51798,-8.3353 26.805692,-7.51564 25.830582,-6.26193 2.70415,11.38251 -28.055355,44.64092 -62.496237,42.17685 -40.0868202,-2.86801 -61.261901,-35.76179 -61.218228,-65.75447 0.03917,-26.89802 22.0445707,-59.435055 54.388129,-62.931235 25.775095,-2.786162 57.740676,6.503521 70.877526,40.642385 z"
         id="path4755"
         inkscape:connector-curvature="0"
         sodipodi:nodetypes="cssssscsssc" />
      <path
         sodipodi:nodetypes="cccszzsssc"
         inkscape:connector-curvature="0"
         id="path4757"
         d="m 57.735009,124.04011 c -6.161636,0.007 -22.310459,1.48487 -24.798455,-0.22913 -24.5412917,-19.32748 -53.009461,-4.45161 -55.072619,23.21315 1.275762,17.23287 14.3172839,32.29035 35.19618,31.65011 13.533765,-0.41501 14.453324,-5.06305 18.432684,-8.11913 3.979361,-3.05608 20.140088,-0.91117 25.382978,-1.26879 5.242889,-0.35763 -8.879981,22.74913 -35.462081,21.08478 -28.8368208,-1.80552 -42.753808,-21.799 -43.549761,-43.34697 -0.881544,-23.86508 16.7971013,-39.43115 36.426695,-43.05847 22.280579,-4.117187 49.410844,17.96054 43.444379,20.07445 z"
         style="fill:#2f97c1;fill-opacity:0.3;stroke:none;stroke-width:0.26458332px;stroke-linecap:butt;stroke-linejoin:miter;stroke-opacity:1" />
    </g>
  </g>
</svg>
